<mxfile host="app.diagrams.net" agent="Mozilla/5.0 (Windows NT 10.0; Win64; x64) AppleWebKit/537.36 (KHTML, like Gecko) Chrome/129.0.0.0 Safari/537.36" version="24.7.17" pages="4">
  <diagram name="Page-1" id="2cc2dc42-3aac-f2a9-1cec-7a8b7cbee084">
    <mxGraphModel dx="2247" dy="3990" grid="1" gridSize="10" guides="1" tooltips="1" connect="1" arrows="1" fold="1" page="1" pageScale="1" pageWidth="1100" pageHeight="850" background="none" math="0" shadow="0">
      <root>
        <mxCell id="0" />
        <mxCell id="1" parent="0" />
        <mxCell id="7026571954dc6520-1" value="&lt;span style=&quot;color: rgba(0, 0, 0, 0); font-family: monospace; font-size: 0px; text-align: start;&quot;&gt;%3CmxGraphModel%3E%3Croot%3E%3CmxCell%20id%3D%220%22%2F%3E%3CmxCell%20id%3D%221%22%20parent%3D%220%22%2F%3E%3CmxCell%20id%3D%222%22%20value%3D%22Button%201%22%20style%3D%22strokeWidth%3D1%3Bshadow%3D0%3Bdashed%3D0%3Balign%3Dcenter%3Bhtml%3D1%3Bshape%3Dmxgraph.mockup.buttons.button%3BstrokeColor%3D%23666666%3BmainText%3D%3BbuttonStyle%3Dround%3BfontSize%3D17%3BfontStyle%3D0%3BfillColor%3Dnone%3BwhiteSpace%3Dwrap%3Brounded%3D0%3BlabelBackgroundColor%3Dnone%3B%22%20vertex%3D%221%22%20parent%3D%221%22%3E%3CmxGeometry%20x%3D%221020%22%20y%3D%22360%22%20width%3D%22190%22%20height%3D%2230%22%20as%3D%22geometry%22%2F%3E%3C%2FmxCell%3E%3C%2Froot%3E%3C%2FmxGraphModel%3E&lt;/span&gt;" style="strokeWidth=1;shadow=0;dashed=0;align=center;html=1;shape=mxgraph.mockup.containers.browserWindow;rSize=0;strokeColor=#666666;mainText=,;recursiveResize=0;rounded=0;labelBackgroundColor=none;fontFamily=Verdana;fontSize=12" parent="1" vertex="1">
          <mxGeometry x="-660" y="-2900" width="2820" height="3150" as="geometry" />
        </mxCell>
        <mxCell id="7026571954dc6520-2" value="Page 1" style="strokeWidth=1;shadow=0;dashed=0;align=center;html=1;shape=mxgraph.mockup.containers.anchor;fontSize=17;fontColor=#666666;align=left;" parent="7026571954dc6520-1" vertex="1">
          <mxGeometry x="60" y="12" width="110" height="26" as="geometry" />
        </mxCell>
        <mxCell id="7026571954dc6520-3" value="https://www.vivagym.com" style="strokeWidth=1;shadow=0;dashed=0;align=center;html=1;shape=mxgraph.mockup.containers.anchor;rSize=0;fontSize=17;fontColor=#666666;align=left;" parent="7026571954dc6520-1" vertex="1">
          <mxGeometry x="130" y="60" width="250" height="26" as="geometry" />
        </mxCell>
        <mxCell id="XLKGfBQeltBe2YmnbtY1-1" value="" style="rounded=0;whiteSpace=wrap;html=1;" vertex="1" parent="7026571954dc6520-1">
          <mxGeometry y="110" width="2820" height="130" as="geometry" />
        </mxCell>
        <mxCell id="7026571954dc6520-22" value="" style="verticalLabelPosition=bottom;shadow=0;dashed=0;align=center;html=1;verticalAlign=top;strokeWidth=1;shape=mxgraph.mockup.graphics.simpleIcon;strokeColor=#999999;fillColor=#ffffff;rounded=0;labelBackgroundColor=none;fontFamily=Verdana;fontSize=12;fontColor=#000000;" parent="7026571954dc6520-1" vertex="1">
          <mxGeometry y="240" width="2820" height="530" as="geometry" />
        </mxCell>
        <mxCell id="0hAVM_coMiCA_Wu5iVH3-1" value="&lt;font style=&quot;font-size: 27px;&quot;&gt;Button 1&lt;/font&gt;" style="strokeWidth=1;shadow=0;dashed=0;align=center;html=1;shape=mxgraph.mockup.buttons.button;strokeColor=#666666;mainText=;buttonStyle=round;fontSize=17;fontStyle=0;fillColor=none;whiteSpace=wrap;rounded=0;labelBackgroundColor=none;" vertex="1" parent="7026571954dc6520-1">
          <mxGeometry x="2460" y="152.5" width="180" height="45" as="geometry" />
        </mxCell>
        <mxCell id="0hAVM_coMiCA_Wu5iVH3-2" value="&lt;font style=&quot;font-size: 26px;&quot;&gt;Text&lt;/font&gt;" style="text;html=1;align=center;verticalAlign=middle;whiteSpace=wrap;rounded=0;" vertex="1" parent="7026571954dc6520-1">
          <mxGeometry x="2310" y="152.5" width="120" height="40" as="geometry" />
        </mxCell>
        <mxCell id="0hAVM_coMiCA_Wu5iVH3-3" value="&lt;font style=&quot;font-size: 26px;&quot;&gt;Text&lt;/font&gt;" style="text;html=1;align=center;verticalAlign=middle;whiteSpace=wrap;rounded=0;" vertex="1" parent="7026571954dc6520-1">
          <mxGeometry x="2200" y="157.5" width="60" height="30" as="geometry" />
        </mxCell>
        <mxCell id="0hAVM_coMiCA_Wu5iVH3-4" value="&lt;font style=&quot;font-size: 26px;&quot;&gt;Text&lt;/font&gt;" style="text;html=1;align=center;verticalAlign=middle;whiteSpace=wrap;rounded=0;" vertex="1" parent="7026571954dc6520-1">
          <mxGeometry x="2040" y="157.5" width="60" height="30" as="geometry" />
        </mxCell>
        <mxCell id="0hAVM_coMiCA_Wu5iVH3-5" value="&lt;font style=&quot;font-size: 26px;&quot;&gt;Text&lt;/font&gt;" style="text;html=1;align=center;verticalAlign=middle;whiteSpace=wrap;rounded=0;" vertex="1" parent="7026571954dc6520-1">
          <mxGeometry x="1870" y="157.5" width="60" height="30" as="geometry" />
        </mxCell>
        <mxCell id="0hAVM_coMiCA_Wu5iVH3-6" value="&lt;font style=&quot;font-size: 26px;&quot;&gt;Text&lt;/font&gt;" style="text;html=1;align=center;verticalAlign=middle;whiteSpace=wrap;rounded=0;" vertex="1" parent="7026571954dc6520-1">
          <mxGeometry x="1690" y="157.5" width="60" height="30" as="geometry" />
        </mxCell>
        <mxCell id="0hAVM_coMiCA_Wu5iVH3-8" value="&lt;font style=&quot;font-size: 26px;&quot;&gt;Logo&lt;/font&gt;" style="text;html=1;align=center;verticalAlign=middle;whiteSpace=wrap;rounded=0;" vertex="1" parent="7026571954dc6520-1">
          <mxGeometry x="41.95999999999998" y="210" width="146.09" height="90" as="geometry" />
        </mxCell>
        <mxCell id="0hAVM_coMiCA_Wu5iVH3-10" value="&lt;h2&gt;&lt;font style=&quot;font-size: 26px;&quot;&gt;Titulo&lt;/font&gt;&lt;/h2&gt;" style="text;html=1;align=center;verticalAlign=middle;whiteSpace=wrap;rounded=0;" vertex="1" parent="7026571954dc6520-1">
          <mxGeometry x="370" y="1180" width="190" height="60" as="geometry" />
        </mxCell>
        <mxCell id="0hAVM_coMiCA_Wu5iVH3-12" value="&lt;h1&gt;&lt;font style=&quot;font-size: 60px;&quot;&gt;Encabezado 1&lt;/font&gt;&lt;/h1&gt;" style="text;strokeColor=none;fillColor=none;align=left;verticalAlign=middle;spacingLeft=4;spacingRight=4;overflow=hidden;points=[[0,0.5],[1,0.5]];portConstraint=eastwest;rotatable=0;whiteSpace=wrap;html=1;" vertex="1" parent="7026571954dc6520-1">
          <mxGeometry x="1280" y="770" width="420" height="180" as="geometry" />
        </mxCell>
        <mxCell id="0hAVM_coMiCA_Wu5iVH3-19" value="&lt;font style=&quot;font-size: 22px;&quot;&gt;&lt;span style=&quot;&quot;&gt;Some default text to fill some space, and&amp;nbsp;&lt;/span&gt;&lt;span style=&quot;&quot;&gt;something more so there is more text&lt;/span&gt;&lt;/font&gt;" style="text;html=1;align=left;verticalAlign=middle;whiteSpace=wrap;rounded=0;fontFamily=Verdana;" vertex="1" parent="7026571954dc6520-1">
          <mxGeometry x="310" y="1210" width="330" height="140" as="geometry" />
        </mxCell>
        <mxCell id="0hAVM_coMiCA_Wu5iVH3-25" value="&lt;h2&gt;&lt;font style=&quot;font-size: 26px;&quot;&gt;Titulo&lt;/font&gt;&lt;/h2&gt;" style="text;html=1;align=center;verticalAlign=middle;whiteSpace=wrap;rounded=0;" vertex="1" parent="7026571954dc6520-1">
          <mxGeometry x="1070" y="1170" width="190" height="60" as="geometry" />
        </mxCell>
        <mxCell id="0hAVM_coMiCA_Wu5iVH3-27" value="&lt;h2&gt;&lt;font style=&quot;font-size: 26px;&quot;&gt;Titulo&lt;/font&gt;&lt;/h2&gt;" style="text;html=1;align=center;verticalAlign=middle;whiteSpace=wrap;rounded=0;" vertex="1" parent="7026571954dc6520-1">
          <mxGeometry x="1750" y="1170" width="190" height="60" as="geometry" />
        </mxCell>
        <mxCell id="0hAVM_coMiCA_Wu5iVH3-29" value="&lt;h2&gt;&lt;font style=&quot;font-size: 26px;&quot;&gt;Titulo&lt;/font&gt;&lt;/h2&gt;" style="text;html=1;align=center;verticalAlign=middle;whiteSpace=wrap;rounded=0;" vertex="1" parent="7026571954dc6520-1">
          <mxGeometry x="2370" y="1170" width="190" height="60" as="geometry" />
        </mxCell>
        <mxCell id="0hAVM_coMiCA_Wu5iVH3-35" value="" style="endArrow=none;html=1;rounded=0;" edge="1" parent="7026571954dc6520-1">
          <mxGeometry width="50" height="50" relative="1" as="geometry">
            <mxPoint x="240" y="200" as="sourcePoint" />
            <mxPoint y="155" as="targetPoint" />
          </mxGeometry>
        </mxCell>
        <mxCell id="0hAVM_coMiCA_Wu5iVH3-34" value="" style="endArrow=none;html=1;rounded=0;" edge="1" parent="7026571954dc6520-1">
          <mxGeometry width="50" height="50" relative="1" as="geometry">
            <mxPoint y="309.99697478991584" as="sourcePoint" />
            <mxPoint x="210" y="330" as="targetPoint" />
          </mxGeometry>
        </mxCell>
        <mxCell id="0hAVM_coMiCA_Wu5iVH3-37" value="&lt;font style=&quot;font-size: 26px;&quot;&gt;Imagen&lt;/font&gt;" style="text;html=1;align=center;verticalAlign=middle;whiteSpace=wrap;rounded=0;" vertex="1" parent="7026571954dc6520-1">
          <mxGeometry x="1380" y="490" width="60" height="30" as="geometry" />
        </mxCell>
        <mxCell id="bq_WmEVtt5FmzYchJl0X-30" value="&lt;font style=&quot;font-size: 22px;&quot;&gt;&lt;span style=&quot;&quot;&gt;Some default text to fill some space, and&amp;nbsp;&lt;/span&gt;&lt;span style=&quot;&quot;&gt;something more so there is more text&lt;/span&gt;&lt;/font&gt;" style="text;html=1;align=left;verticalAlign=middle;whiteSpace=wrap;rounded=0;fontFamily=Verdana;" vertex="1" parent="7026571954dc6520-1">
          <mxGeometry x="1010" y="1210" width="330" height="140" as="geometry" />
        </mxCell>
        <mxCell id="bq_WmEVtt5FmzYchJl0X-31" value="&lt;font style=&quot;font-size: 22px;&quot;&gt;&lt;span style=&quot;&quot;&gt;Some default text to fill some space, and&amp;nbsp;&lt;/span&gt;&lt;span style=&quot;&quot;&gt;something more so there is more text&lt;/span&gt;&lt;/font&gt;" style="text;html=1;align=left;verticalAlign=middle;whiteSpace=wrap;rounded=0;fontFamily=Verdana;" vertex="1" parent="7026571954dc6520-1">
          <mxGeometry x="1710" y="1210" width="330" height="140" as="geometry" />
        </mxCell>
        <mxCell id="bq_WmEVtt5FmzYchJl0X-32" value="&lt;font style=&quot;font-size: 22px;&quot;&gt;&lt;span style=&quot;&quot;&gt;Some default text to fill some space, and&amp;nbsp;&lt;/span&gt;&lt;span style=&quot;&quot;&gt;something more so there is more text&lt;/span&gt;&lt;/font&gt;" style="text;html=1;align=left;verticalAlign=middle;whiteSpace=wrap;rounded=0;fontFamily=Verdana;" vertex="1" parent="7026571954dc6520-1">
          <mxGeometry x="2300" y="1210" width="330" height="140" as="geometry" />
        </mxCell>
        <mxCell id="bq_WmEVtt5FmzYchJl0X-34" value="" style="verticalLabelPosition=bottom;shadow=0;dashed=0;align=center;html=1;verticalAlign=top;strokeWidth=1;shape=mxgraph.mockup.graphics.simpleIcon;strokeColor=#999999;fillColor=#ffffff;rounded=0;labelBackgroundColor=none;fontFamily=Verdana;fontSize=12;fontColor=#000000;" vertex="1" parent="7026571954dc6520-1">
          <mxGeometry x="260" y="940" width="410" height="190" as="geometry" />
        </mxCell>
        <mxCell id="0hAVM_coMiCA_Wu5iVH3-36" value="" style="endArrow=none;html=1;rounded=0;" edge="1" parent="7026571954dc6520-1">
          <mxGeometry width="50" height="50" relative="1" as="geometry">
            <mxPoint x="210" y="330" as="sourcePoint" />
            <mxPoint x="240" y="200" as="targetPoint" />
          </mxGeometry>
        </mxCell>
        <mxCell id="bq_WmEVtt5FmzYchJl0X-35" value="" style="verticalLabelPosition=bottom;shadow=0;dashed=0;align=center;html=1;verticalAlign=top;strokeWidth=1;shape=mxgraph.mockup.graphics.simpleIcon;strokeColor=#999999;fillColor=#ffffff;rounded=0;labelBackgroundColor=none;fontFamily=Verdana;fontSize=12;fontColor=#000000;" vertex="1" parent="7026571954dc6520-1">
          <mxGeometry x="980" y="940" width="410" height="190" as="geometry" />
        </mxCell>
        <mxCell id="bq_WmEVtt5FmzYchJl0X-36" value="" style="verticalLabelPosition=bottom;shadow=0;dashed=0;align=center;html=1;verticalAlign=top;strokeWidth=1;shape=mxgraph.mockup.graphics.simpleIcon;strokeColor=#999999;fillColor=#ffffff;rounded=0;labelBackgroundColor=none;fontFamily=Verdana;fontSize=12;fontColor=#000000;" vertex="1" parent="7026571954dc6520-1">
          <mxGeometry x="1660" y="940" width="410" height="190" as="geometry" />
        </mxCell>
        <mxCell id="bq_WmEVtt5FmzYchJl0X-37" value="" style="verticalLabelPosition=bottom;shadow=0;dashed=0;align=center;html=1;verticalAlign=top;strokeWidth=1;shape=mxgraph.mockup.graphics.simpleIcon;strokeColor=#999999;fillColor=#ffffff;rounded=0;labelBackgroundColor=none;fontFamily=Verdana;fontSize=12;fontColor=#000000;" vertex="1" parent="7026571954dc6520-1">
          <mxGeometry x="2270" y="940" width="410" height="190" as="geometry" />
        </mxCell>
        <mxCell id="bq_WmEVtt5FmzYchJl0X-38" value="" style="rounded=0;whiteSpace=wrap;html=1;" vertex="1" parent="7026571954dc6520-1">
          <mxGeometry y="1440" width="2820" height="1150" as="geometry" />
        </mxCell>
        <mxCell id="SxRaBWY97LFjH880lX8Y-3" value="&lt;h1&gt;&lt;font style=&quot;font-size: 60px;&quot;&gt;Encabezado 2&lt;/font&gt;&lt;/h1&gt;" style="text;strokeColor=none;fillColor=none;align=left;verticalAlign=middle;spacingLeft=4;spacingRight=4;overflow=hidden;points=[[0,0.5],[1,0.5]];portConstraint=eastwest;rotatable=0;whiteSpace=wrap;html=1;" vertex="1" parent="7026571954dc6520-1">
          <mxGeometry x="1250" y="1470" width="420" height="180" as="geometry" />
        </mxCell>
        <mxCell id="SxRaBWY97LFjH880lX8Y-8" value="&lt;h2&gt;&lt;font style=&quot;font-size: 26px;&quot;&gt;Titulo&lt;/font&gt;&lt;/h2&gt;" style="text;html=1;align=center;verticalAlign=middle;whiteSpace=wrap;rounded=0;" vertex="1" parent="7026571954dc6520-1">
          <mxGeometry x="450" y="1950" width="190" height="60" as="geometry" />
        </mxCell>
        <mxCell id="SxRaBWY97LFjH880lX8Y-9" value="&lt;font style=&quot;font-size: 22px;&quot;&gt;&lt;span style=&quot;&quot;&gt;Some default text to fill some space, and&amp;nbsp;&lt;/span&gt;&lt;span style=&quot;&quot;&gt;something more so there is more text&lt;/span&gt;&lt;/font&gt;" style="text;html=1;align=left;verticalAlign=middle;whiteSpace=wrap;rounded=0;fontFamily=Verdana;" vertex="1" parent="7026571954dc6520-1">
          <mxGeometry x="390" y="1980" width="330" height="140" as="geometry" />
        </mxCell>
        <mxCell id="SxRaBWY97LFjH880lX8Y-10" value="&lt;h2&gt;&lt;font style=&quot;font-size: 26px;&quot;&gt;Titulo&lt;/font&gt;&lt;/h2&gt;" style="text;html=1;align=center;verticalAlign=middle;whiteSpace=wrap;rounded=0;" vertex="1" parent="7026571954dc6520-1">
          <mxGeometry x="1060" y="1950" width="190" height="60" as="geometry" />
        </mxCell>
        <mxCell id="SxRaBWY97LFjH880lX8Y-11" value="&lt;font style=&quot;font-size: 22px;&quot;&gt;&lt;span style=&quot;&quot;&gt;Some default text to fill some space, and&amp;nbsp;&lt;/span&gt;&lt;span style=&quot;&quot;&gt;something more so there is more text&lt;/span&gt;&lt;/font&gt;" style="text;html=1;align=left;verticalAlign=middle;whiteSpace=wrap;rounded=0;fontFamily=Verdana;" vertex="1" parent="7026571954dc6520-1">
          <mxGeometry x="1010" y="1980" width="330" height="140" as="geometry" />
        </mxCell>
        <mxCell id="SxRaBWY97LFjH880lX8Y-12" value="&lt;h2&gt;&lt;font style=&quot;font-size: 26px;&quot;&gt;Titulo&lt;/font&gt;&lt;/h2&gt;" style="text;html=1;align=center;verticalAlign=middle;whiteSpace=wrap;rounded=0;" vertex="1" parent="7026571954dc6520-1">
          <mxGeometry x="1680" y="1930" width="190" height="60" as="geometry" />
        </mxCell>
        <mxCell id="SxRaBWY97LFjH880lX8Y-13" value="&lt;font style=&quot;font-size: 22px;&quot;&gt;&lt;span style=&quot;&quot;&gt;Some default text to fill some space, and&amp;nbsp;&lt;/span&gt;&lt;span style=&quot;&quot;&gt;something more so there is more text&lt;/span&gt;&lt;/font&gt;" style="text;html=1;align=left;verticalAlign=middle;whiteSpace=wrap;rounded=0;fontFamily=Verdana;" vertex="1" parent="7026571954dc6520-1">
          <mxGeometry x="1620" y="1960" width="330" height="140" as="geometry" />
        </mxCell>
        <mxCell id="SxRaBWY97LFjH880lX8Y-14" value="&lt;h2&gt;&lt;font style=&quot;font-size: 26px;&quot;&gt;Titulo&lt;/font&gt;&lt;/h2&gt;" style="text;html=1;align=center;verticalAlign=middle;whiteSpace=wrap;rounded=0;" vertex="1" parent="7026571954dc6520-1">
          <mxGeometry x="2240" y="1920" width="190" height="60" as="geometry" />
        </mxCell>
        <mxCell id="SxRaBWY97LFjH880lX8Y-15" value="&lt;font style=&quot;font-size: 22px;&quot;&gt;&lt;span style=&quot;&quot;&gt;Some default text to fill some space, and&amp;nbsp;&lt;/span&gt;&lt;span style=&quot;&quot;&gt;something more so there is more text&lt;/span&gt;&lt;/font&gt;" style="text;html=1;align=left;verticalAlign=middle;whiteSpace=wrap;rounded=0;fontFamily=Verdana;" vertex="1" parent="7026571954dc6520-1">
          <mxGeometry x="2180" y="1950" width="330" height="140" as="geometry" />
        </mxCell>
        <mxCell id="SxRaBWY97LFjH880lX8Y-16" value="" style="ellipse;whiteSpace=wrap;html=1;aspect=fixed;" vertex="1" parent="7026571954dc6520-1">
          <mxGeometry x="410" y="1610" width="330" height="330" as="geometry" />
        </mxCell>
        <mxCell id="SxRaBWY97LFjH880lX8Y-4" value="" style="verticalLabelPosition=bottom;shadow=0;dashed=0;align=center;html=1;verticalAlign=top;strokeWidth=1;shape=mxgraph.mockup.graphics.simpleIcon;strokeColor=#999999;fillColor=#ffffff;rounded=0;labelBackgroundColor=none;fontFamily=Verdana;fontSize=12;fontColor=#000000;" vertex="1" parent="7026571954dc6520-1">
          <mxGeometry x="470" y="1650" width="210" height="250" as="geometry" />
        </mxCell>
        <mxCell id="SxRaBWY97LFjH880lX8Y-17" value="" style="ellipse;whiteSpace=wrap;html=1;aspect=fixed;" vertex="1" parent="7026571954dc6520-1">
          <mxGeometry x="1000" y="1610" width="330" height="330" as="geometry" />
        </mxCell>
        <mxCell id="SxRaBWY97LFjH880lX8Y-18" value="" style="verticalLabelPosition=bottom;shadow=0;dashed=0;align=center;html=1;verticalAlign=top;strokeWidth=1;shape=mxgraph.mockup.graphics.simpleIcon;strokeColor=#999999;fillColor=#ffffff;rounded=0;labelBackgroundColor=none;fontFamily=Verdana;fontSize=12;fontColor=#000000;" vertex="1" parent="7026571954dc6520-1">
          <mxGeometry x="1060" y="1650" width="210" height="250" as="geometry" />
        </mxCell>
        <mxCell id="SxRaBWY97LFjH880lX8Y-19" value="" style="ellipse;whiteSpace=wrap;html=1;aspect=fixed;" vertex="1" parent="7026571954dc6520-1">
          <mxGeometry x="1610" y="1600" width="330" height="330" as="geometry" />
        </mxCell>
        <mxCell id="SxRaBWY97LFjH880lX8Y-20" value="" style="verticalLabelPosition=bottom;shadow=0;dashed=0;align=center;html=1;verticalAlign=top;strokeWidth=1;shape=mxgraph.mockup.graphics.simpleIcon;strokeColor=#999999;fillColor=#ffffff;rounded=0;labelBackgroundColor=none;fontFamily=Verdana;fontSize=12;fontColor=#000000;" vertex="1" parent="7026571954dc6520-1">
          <mxGeometry x="1670" y="1640" width="210" height="250" as="geometry" />
        </mxCell>
        <mxCell id="SxRaBWY97LFjH880lX8Y-21" value="" style="ellipse;whiteSpace=wrap;html=1;aspect=fixed;" vertex="1" parent="7026571954dc6520-1">
          <mxGeometry x="2160" y="1580" width="330" height="330" as="geometry" />
        </mxCell>
        <mxCell id="SxRaBWY97LFjH880lX8Y-22" value="" style="verticalLabelPosition=bottom;shadow=0;dashed=0;align=center;html=1;verticalAlign=top;strokeWidth=1;shape=mxgraph.mockup.graphics.simpleIcon;strokeColor=#999999;fillColor=#ffffff;rounded=0;labelBackgroundColor=none;fontFamily=Verdana;fontSize=12;fontColor=#000000;" vertex="1" parent="7026571954dc6520-1">
          <mxGeometry x="2220" y="1620" width="210" height="250" as="geometry" />
        </mxCell>
        <mxCell id="SxRaBWY97LFjH880lX8Y-23" value="" style="ellipse;whiteSpace=wrap;html=1;aspect=fixed;" vertex="1" parent="7026571954dc6520-1">
          <mxGeometry x="500" y="2120" width="80" height="80" as="geometry" />
        </mxCell>
        <mxCell id="SxRaBWY97LFjH880lX8Y-24" value="" style="ellipse;whiteSpace=wrap;html=1;aspect=fixed;" vertex="1" parent="7026571954dc6520-1">
          <mxGeometry x="1145" y="2120" width="80" height="80" as="geometry" />
        </mxCell>
        <mxCell id="SxRaBWY97LFjH880lX8Y-25" value="" style="ellipse;whiteSpace=wrap;html=1;aspect=fixed;" vertex="1" parent="7026571954dc6520-1">
          <mxGeometry x="1745" y="2120" width="80" height="80" as="geometry" />
        </mxCell>
        <mxCell id="SxRaBWY97LFjH880lX8Y-26" value="" style="ellipse;whiteSpace=wrap;html=1;aspect=fixed;" vertex="1" parent="7026571954dc6520-1">
          <mxGeometry x="2330" y="2110" width="80" height="80" as="geometry" />
        </mxCell>
        <mxCell id="SxRaBWY97LFjH880lX8Y-27" value="&lt;span style=&quot;font-size: 25px;&quot;&gt;Button&lt;/span&gt;" style="text;html=1;align=center;verticalAlign=middle;whiteSpace=wrap;rounded=0;" vertex="1" parent="7026571954dc6520-1">
          <mxGeometry x="510" y="2145" width="60" height="30" as="geometry" />
        </mxCell>
        <mxCell id="SxRaBWY97LFjH880lX8Y-28" value="&lt;font style=&quot;font-size: 25px;&quot;&gt;Button&lt;/font&gt;" style="text;html=1;align=center;verticalAlign=middle;whiteSpace=wrap;rounded=0;" vertex="1" parent="7026571954dc6520-1">
          <mxGeometry x="1155" y="2145" width="60" height="30" as="geometry" />
        </mxCell>
        <mxCell id="SxRaBWY97LFjH880lX8Y-29" value="&lt;font style=&quot;font-size: 25px;&quot;&gt;Button&lt;/font&gt;" style="text;html=1;align=center;verticalAlign=middle;whiteSpace=wrap;rounded=0;" vertex="1" parent="7026571954dc6520-1">
          <mxGeometry x="1755" y="2145" width="60" height="30" as="geometry" />
        </mxCell>
        <mxCell id="SxRaBWY97LFjH880lX8Y-30" value="&lt;font style=&quot;font-size: 25px;&quot;&gt;Button&lt;/font&gt;" style="text;html=1;align=center;verticalAlign=middle;whiteSpace=wrap;rounded=0;" vertex="1" parent="7026571954dc6520-1">
          <mxGeometry x="2340" y="2135" width="60" height="30" as="geometry" />
        </mxCell>
        <mxCell id="SxRaBWY97LFjH880lX8Y-32" value="Text" style="text;html=1;align=center;verticalAlign=middle;whiteSpace=wrap;rounded=0;fontSize=35;" vertex="1" parent="7026571954dc6520-1">
          <mxGeometry x="910" y="2400" width="60" height="30" as="geometry" />
        </mxCell>
        <mxCell id="SxRaBWY97LFjH880lX8Y-33" value="Text" style="text;html=1;align=center;verticalAlign=middle;whiteSpace=wrap;rounded=0;fontSize=35;" vertex="1" parent="7026571954dc6520-1">
          <mxGeometry x="1760" y="2400" width="60" height="30" as="geometry" />
        </mxCell>
        <mxCell id="SxRaBWY97LFjH880lX8Y-34" value="" style="rounded=0;whiteSpace=wrap;html=1;" vertex="1" parent="7026571954dc6520-1">
          <mxGeometry y="2820" width="2820" height="330" as="geometry" />
        </mxCell>
        <mxCell id="SxRaBWY97LFjH880lX8Y-35" value="Texto footer" style="text;html=1;align=center;verticalAlign=middle;whiteSpace=wrap;rounded=0;fontSize=35;" vertex="1" parent="7026571954dc6520-1">
          <mxGeometry x="1040" y="2880" width="640" height="190" as="geometry" />
        </mxCell>
        <mxCell id="SxRaBWY97LFjH880lX8Y-36" value="" style="rounded=1;whiteSpace=wrap;html=1;" vertex="1" parent="7026571954dc6520-1">
          <mxGeometry x="1010" y="2550" width="110" height="100" as="geometry" />
        </mxCell>
        <mxCell id="SxRaBWY97LFjH880lX8Y-37" value="" style="rounded=1;whiteSpace=wrap;html=1;" vertex="1" parent="7026571954dc6520-1">
          <mxGeometry x="1270" y="2550" width="110" height="100" as="geometry" />
        </mxCell>
        <mxCell id="SxRaBWY97LFjH880lX8Y-38" value="" style="rounded=1;whiteSpace=wrap;html=1;" vertex="1" parent="7026571954dc6520-1">
          <mxGeometry x="1510" y="2550" width="110" height="100" as="geometry" />
        </mxCell>
        <mxCell id="SxRaBWY97LFjH880lX8Y-39" value="&lt;font style=&quot;font-size: 35px;&quot;&gt;Redes&lt;/font&gt;" style="text;html=1;align=center;verticalAlign=middle;whiteSpace=wrap;rounded=0;" vertex="1" parent="7026571954dc6520-1">
          <mxGeometry x="1035" y="2590" width="60" height="30" as="geometry" />
        </mxCell>
        <mxCell id="SxRaBWY97LFjH880lX8Y-40" value="&lt;font style=&quot;font-size: 35px;&quot;&gt;Redes&lt;/font&gt;" style="text;html=1;align=center;verticalAlign=middle;whiteSpace=wrap;rounded=0;" vertex="1" parent="7026571954dc6520-1">
          <mxGeometry x="1295" y="2590" width="60" height="30" as="geometry" />
        </mxCell>
        <mxCell id="SxRaBWY97LFjH880lX8Y-41" value="&lt;font style=&quot;font-size: 35px;&quot;&gt;Redes&lt;/font&gt;" style="text;html=1;align=center;verticalAlign=middle;whiteSpace=wrap;rounded=0;" vertex="1" parent="7026571954dc6520-1">
          <mxGeometry x="1535" y="2585" width="60" height="30" as="geometry" />
        </mxCell>
      </root>
    </mxGraphModel>
  </diagram>
  <diagram name="Page-2" id="cp838sDLxt2_Td_M7qjT">
    <mxGraphModel dx="3490" dy="4630" grid="1" gridSize="10" guides="1" tooltips="1" connect="1" arrows="1" fold="1" page="1" pageScale="1" pageWidth="1100" pageHeight="850" background="none" math="0" shadow="0">
      <root>
        <mxCell id="yLfSXBe9Z06R7LcMlgQb-0" />
        <mxCell id="yLfSXBe9Z06R7LcMlgQb-1" parent="yLfSXBe9Z06R7LcMlgQb-0" />
        <mxCell id="yLfSXBe9Z06R7LcMlgQb-2" value="&lt;span style=&quot;color: rgba(0, 0, 0, 0); font-family: monospace; font-size: 0px; text-align: start;&quot;&gt;%3CmxGraphModel%3E%3Croot%3E%3CmxCell%20id%3D%220%22%2F%3E%3CmxCell%20id%3D%221%22%20parent%3D%220%22%2F%3E%3CmxCell%20id%3D%222%22%20value%3D%22Button%201%22%20style%3D%22strokeWidth%3D1%3Bshadow%3D0%3Bdashed%3D0%3Balign%3Dcenter%3Bhtml%3D1%3Bshape%3Dmxgraph.mockup.buttons.button%3BstrokeColor%3D%23666666%3BmainText%3D%3BbuttonStyle%3Dround%3BfontSize%3D17%3BfontStyle%3D0%3BfillColor%3Dnone%3BwhiteSpace%3Dwrap%3Brounded%3D0%3BlabelBackgroundColor%3Dnone%3B%22%20vertex%3D%221%22%20parent%3D%221%22%3E%3CmxGeometry%20x%3D%221020%22%20y%3D%22360%22%20width%3D%22190%22%20height%3D%2230%22%20as%3D%22geometry%22%2F%3E%3C%2FmxCell%3E%3C%2Froot%3E%3C%2FmxGraphModel%3E&lt;/span&gt;" style="strokeWidth=1;shadow=0;dashed=0;align=center;html=1;shape=mxgraph.mockup.containers.browserWindow;rSize=0;strokeColor=#666666;mainText=,;recursiveResize=0;rounded=0;labelBackgroundColor=none;fontFamily=Verdana;fontSize=12" vertex="1" parent="yLfSXBe9Z06R7LcMlgQb-1">
          <mxGeometry x="-1000" y="-3360" width="2020" height="2220" as="geometry" />
        </mxCell>
        <mxCell id="FvbCaO4cwxIxAErv749W-6" value="" style="rounded=0;whiteSpace=wrap;html=1;" vertex="1" parent="yLfSXBe9Z06R7LcMlgQb-2">
          <mxGeometry y="240" width="2020" height="240" as="geometry" />
        </mxCell>
        <mxCell id="yLfSXBe9Z06R7LcMlgQb-5" value="" style="rounded=0;whiteSpace=wrap;html=1;" vertex="1" parent="yLfSXBe9Z06R7LcMlgQb-2">
          <mxGeometry y="110" width="2020" height="130" as="geometry" />
        </mxCell>
        <mxCell id="yLfSXBe9Z06R7LcMlgQb-3" value="Page 2" style="strokeWidth=1;shadow=0;dashed=0;align=center;html=1;shape=mxgraph.mockup.containers.anchor;fontSize=17;fontColor=#666666;align=left;" vertex="1" parent="yLfSXBe9Z06R7LcMlgQb-2">
          <mxGeometry x="60" y="12" width="110" height="26" as="geometry" />
        </mxCell>
        <mxCell id="yLfSXBe9Z06R7LcMlgQb-4" value="https://www.vivagym.com" style="strokeWidth=1;shadow=0;dashed=0;align=center;html=1;shape=mxgraph.mockup.containers.anchor;rSize=0;fontSize=17;fontColor=#666666;align=left;" vertex="1" parent="yLfSXBe9Z06R7LcMlgQb-2">
          <mxGeometry x="130" y="60" width="250" height="26" as="geometry" />
        </mxCell>
        <mxCell id="yLfSXBe9Z06R7LcMlgQb-6" value="" style="verticalLabelPosition=bottom;shadow=0;dashed=0;align=center;html=1;verticalAlign=top;strokeWidth=1;shape=mxgraph.mockup.graphics.simpleIcon;strokeColor=#999999;fillColor=#ffffff;rounded=0;labelBackgroundColor=none;fontFamily=Verdana;fontSize=12;fontColor=#000000;" vertex="1" parent="yLfSXBe9Z06R7LcMlgQb-2">
          <mxGeometry x="200" y="590" width="810" height="360" as="geometry" />
        </mxCell>
        <mxCell id="yLfSXBe9Z06R7LcMlgQb-13" value="&lt;font style=&quot;font-size: 26px;&quot;&gt;Logo&lt;/font&gt;" style="text;html=1;align=center;verticalAlign=middle;whiteSpace=wrap;rounded=0;" vertex="1" parent="yLfSXBe9Z06R7LcMlgQb-2">
          <mxGeometry x="41.95999999999998" y="210" width="146.09" height="90" as="geometry" />
        </mxCell>
        <mxCell id="yLfSXBe9Z06R7LcMlgQb-20" value="" style="endArrow=none;html=1;rounded=0;" edge="1" parent="yLfSXBe9Z06R7LcMlgQb-2">
          <mxGeometry width="50" height="50" relative="1" as="geometry">
            <mxPoint x="240" y="200" as="sourcePoint" />
            <mxPoint y="155" as="targetPoint" />
          </mxGeometry>
        </mxCell>
        <mxCell id="yLfSXBe9Z06R7LcMlgQb-21" value="" style="endArrow=none;html=1;rounded=0;" edge="1" parent="yLfSXBe9Z06R7LcMlgQb-2">
          <mxGeometry width="50" height="50" relative="1" as="geometry">
            <mxPoint y="309.99697478991584" as="sourcePoint" />
            <mxPoint x="210" y="330" as="targetPoint" />
          </mxGeometry>
        </mxCell>
        <mxCell id="yLfSXBe9Z06R7LcMlgQb-27" value="" style="endArrow=none;html=1;rounded=0;" edge="1" parent="yLfSXBe9Z06R7LcMlgQb-2">
          <mxGeometry width="50" height="50" relative="1" as="geometry">
            <mxPoint x="210" y="330" as="sourcePoint" />
            <mxPoint x="240" y="200" as="targetPoint" />
          </mxGeometry>
        </mxCell>
        <mxCell id="FvbCaO4cwxIxAErv749W-0" value="&lt;font style=&quot;font-size: 27px;&quot;&gt;Button 1&lt;/font&gt;" style="strokeWidth=1;shadow=0;dashed=0;align=center;html=1;shape=mxgraph.mockup.buttons.button;strokeColor=#666666;mainText=;buttonStyle=round;fontSize=17;fontStyle=0;fillColor=none;whiteSpace=wrap;rounded=0;labelBackgroundColor=none;" vertex="1" parent="yLfSXBe9Z06R7LcMlgQb-2">
          <mxGeometry x="1790" y="152.5" width="180" height="45" as="geometry" />
        </mxCell>
        <mxCell id="FvbCaO4cwxIxAErv749W-1" value="&lt;font style=&quot;font-size: 26px;&quot;&gt;Text&lt;/font&gt;" style="text;html=1;align=center;verticalAlign=middle;whiteSpace=wrap;rounded=0;" vertex="1" parent="yLfSXBe9Z06R7LcMlgQb-2">
          <mxGeometry x="1640" y="152.5" width="120" height="40" as="geometry" />
        </mxCell>
        <mxCell id="FvbCaO4cwxIxAErv749W-2" value="&lt;font style=&quot;font-size: 26px;&quot;&gt;Text&lt;/font&gt;" style="text;html=1;align=center;verticalAlign=middle;whiteSpace=wrap;rounded=0;" vertex="1" parent="yLfSXBe9Z06R7LcMlgQb-2">
          <mxGeometry x="1530" y="157.5" width="60" height="30" as="geometry" />
        </mxCell>
        <mxCell id="FvbCaO4cwxIxAErv749W-3" value="&lt;font style=&quot;font-size: 26px;&quot;&gt;Text&lt;/font&gt;" style="text;html=1;align=center;verticalAlign=middle;whiteSpace=wrap;rounded=0;" vertex="1" parent="yLfSXBe9Z06R7LcMlgQb-2">
          <mxGeometry x="1370" y="157.5" width="60" height="30" as="geometry" />
        </mxCell>
        <mxCell id="FvbCaO4cwxIxAErv749W-4" value="&lt;font style=&quot;font-size: 26px;&quot;&gt;Text&lt;/font&gt;" style="text;html=1;align=center;verticalAlign=middle;whiteSpace=wrap;rounded=0;" vertex="1" parent="yLfSXBe9Z06R7LcMlgQb-2">
          <mxGeometry x="1200" y="157.5" width="60" height="30" as="geometry" />
        </mxCell>
        <mxCell id="FvbCaO4cwxIxAErv749W-5" value="&lt;font style=&quot;font-size: 26px;&quot;&gt;Text&lt;/font&gt;" style="text;html=1;align=center;verticalAlign=middle;whiteSpace=wrap;rounded=0;" vertex="1" parent="yLfSXBe9Z06R7LcMlgQb-2">
          <mxGeometry x="1020" y="157.5" width="60" height="30" as="geometry" />
        </mxCell>
        <mxCell id="FvbCaO4cwxIxAErv749W-24" value="&lt;font style=&quot;font-size: 26px;&quot;&gt;Text&lt;/font&gt;" style="text;html=1;align=center;verticalAlign=middle;whiteSpace=wrap;rounded=0;" vertex="1" parent="yLfSXBe9Z06R7LcMlgQb-2">
          <mxGeometry x="940" y="350" width="60" height="30" as="geometry" />
        </mxCell>
        <mxCell id="7jebML9pXhOm4DK9P8As-0" value="" style="rounded=0;whiteSpace=wrap;html=1;" vertex="1" parent="yLfSXBe9Z06R7LcMlgQb-2">
          <mxGeometry x="1010" y="590" width="900" height="360" as="geometry" />
        </mxCell>
        <mxCell id="7jebML9pXhOm4DK9P8As-1" value="&lt;font style=&quot;font-size: 26px;&quot;&gt;Text&lt;/font&gt;" style="text;html=1;align=center;verticalAlign=middle;whiteSpace=wrap;rounded=0;" vertex="1" parent="yLfSXBe9Z06R7LcMlgQb-2">
          <mxGeometry x="1470" y="755" width="60" height="30" as="geometry" />
        </mxCell>
        <mxCell id="7jebML9pXhOm4DK9P8As-2" value="&lt;font style=&quot;font-size: 22px;&quot;&gt;Button&lt;/font&gt;" style="rounded=1;whiteSpace=wrap;html=1;" vertex="1" parent="yLfSXBe9Z06R7LcMlgQb-2">
          <mxGeometry x="1030" y="880" width="70" height="50" as="geometry" />
        </mxCell>
        <mxCell id="7jebML9pXhOm4DK9P8As-3" value="&lt;font style=&quot;font-size: 22px;&quot;&gt;Button&lt;/font&gt;" style="rounded=1;whiteSpace=wrap;html=1;" vertex="1" parent="yLfSXBe9Z06R7LcMlgQb-2">
          <mxGeometry x="1120" y="880" width="70" height="50" as="geometry" />
        </mxCell>
        <mxCell id="7jebML9pXhOm4DK9P8As-4" value="&lt;font style=&quot;font-size: 26px;&quot;&gt;Text&lt;/font&gt;" style="text;html=1;align=center;verticalAlign=middle;whiteSpace=wrap;rounded=0;" vertex="1" parent="yLfSXBe9Z06R7LcMlgQb-2">
          <mxGeometry x="970" y="1050" width="60" height="30" as="geometry" />
        </mxCell>
        <mxCell id="7jebML9pXhOm4DK9P8As-14" value="&lt;font style=&quot;font-size: 26px;&quot;&gt;Text&lt;/font&gt;" style="text;html=1;align=center;verticalAlign=middle;whiteSpace=wrap;rounded=0;" vertex="1" parent="yLfSXBe9Z06R7LcMlgQb-2">
          <mxGeometry x="650" y="1760" width="60" height="30" as="geometry" />
        </mxCell>
        <mxCell id="7jebML9pXhOm4DK9P8As-13" value="&lt;font style=&quot;font-size: 26px;&quot;&gt;Text&lt;/font&gt;" style="text;html=1;align=center;verticalAlign=middle;whiteSpace=wrap;rounded=0;" vertex="1" parent="yLfSXBe9Z06R7LcMlgQb-2">
          <mxGeometry x="1290" y="1750" width="60" height="30" as="geometry" />
        </mxCell>
        <mxCell id="7jebML9pXhOm4DK9P8As-17" value="" style="verticalLabelPosition=bottom;shadow=0;dashed=0;align=center;html=1;verticalAlign=top;strokeWidth=1;shape=mxgraph.mockup.graphics.simpleIcon;strokeColor=#999999;fillColor=#ffffff;rounded=0;labelBackgroundColor=none;fontFamily=Verdana;fontSize=12;fontColor=#000000;" vertex="1" parent="yLfSXBe9Z06R7LcMlgQb-2">
          <mxGeometry x="390" y="1120" width="240" height="240" as="geometry" />
        </mxCell>
        <mxCell id="7jebML9pXhOm4DK9P8As-21" value="" style="verticalLabelPosition=bottom;shadow=0;dashed=0;align=center;html=1;verticalAlign=top;strokeWidth=1;shape=mxgraph.mockup.graphics.simpleIcon;strokeColor=#999999;fillColor=#ffffff;rounded=0;labelBackgroundColor=none;fontFamily=Verdana;fontSize=12;fontColor=#000000;" vertex="1" parent="yLfSXBe9Z06R7LcMlgQb-2">
          <mxGeometry x="720" y="1130" width="240" height="240" as="geometry" />
        </mxCell>
        <mxCell id="7jebML9pXhOm4DK9P8As-20" value="" style="verticalLabelPosition=bottom;shadow=0;dashed=0;align=center;html=1;verticalAlign=top;strokeWidth=1;shape=mxgraph.mockup.graphics.simpleIcon;strokeColor=#999999;fillColor=#ffffff;rounded=0;labelBackgroundColor=none;fontFamily=Verdana;fontSize=12;fontColor=#000000;" vertex="1" parent="yLfSXBe9Z06R7LcMlgQb-2">
          <mxGeometry x="1080" y="1130" width="240" height="240" as="geometry" />
        </mxCell>
        <mxCell id="7jebML9pXhOm4DK9P8As-19" value="" style="verticalLabelPosition=bottom;shadow=0;dashed=0;align=center;html=1;verticalAlign=top;strokeWidth=1;shape=mxgraph.mockup.graphics.simpleIcon;strokeColor=#999999;fillColor=#ffffff;rounded=0;labelBackgroundColor=none;fontFamily=Verdana;fontSize=12;fontColor=#000000;" vertex="1" parent="yLfSXBe9Z06R7LcMlgQb-2">
          <mxGeometry x="1410" y="1130" width="240" height="240" as="geometry" />
        </mxCell>
        <mxCell id="7jebML9pXhOm4DK9P8As-18" value="" style="verticalLabelPosition=bottom;shadow=0;dashed=0;align=center;html=1;verticalAlign=top;strokeWidth=1;shape=mxgraph.mockup.graphics.simpleIcon;strokeColor=#999999;fillColor=#ffffff;rounded=0;labelBackgroundColor=none;fontFamily=Verdana;fontSize=12;fontColor=#000000;" vertex="1" parent="yLfSXBe9Z06R7LcMlgQb-2">
          <mxGeometry x="1410" y="1460" width="240" height="240" as="geometry" />
        </mxCell>
        <mxCell id="7jebML9pXhOm4DK9P8As-24" value="" style="verticalLabelPosition=bottom;shadow=0;dashed=0;align=center;html=1;verticalAlign=top;strokeWidth=1;shape=mxgraph.mockup.graphics.simpleIcon;strokeColor=#999999;fillColor=#ffffff;rounded=0;labelBackgroundColor=none;fontFamily=Verdana;fontSize=12;fontColor=#000000;" vertex="1" parent="yLfSXBe9Z06R7LcMlgQb-2">
          <mxGeometry x="1090" y="1460" width="240" height="240" as="geometry" />
        </mxCell>
        <mxCell id="7jebML9pXhOm4DK9P8As-23" value="" style="verticalLabelPosition=bottom;shadow=0;dashed=0;align=center;html=1;verticalAlign=top;strokeWidth=1;shape=mxgraph.mockup.graphics.simpleIcon;strokeColor=#999999;fillColor=#ffffff;rounded=0;labelBackgroundColor=none;fontFamily=Verdana;fontSize=12;fontColor=#000000;" vertex="1" parent="yLfSXBe9Z06R7LcMlgQb-2">
          <mxGeometry x="730" y="1460" width="240" height="240" as="geometry" />
        </mxCell>
        <mxCell id="7jebML9pXhOm4DK9P8As-22" value="" style="verticalLabelPosition=bottom;shadow=0;dashed=0;align=center;html=1;verticalAlign=top;strokeWidth=1;shape=mxgraph.mockup.graphics.simpleIcon;strokeColor=#999999;fillColor=#ffffff;rounded=0;labelBackgroundColor=none;fontFamily=Verdana;fontSize=12;fontColor=#000000;" vertex="1" parent="yLfSXBe9Z06R7LcMlgQb-2">
          <mxGeometry x="390" y="1460" width="240" height="240" as="geometry" />
        </mxCell>
      </root>
    </mxGraphModel>
  </diagram>
  <diagram name="Page-6" id="BH8SxuyUIbDFPpNJSje1">
    <mxGraphModel dx="2390" dy="1230" grid="1" gridSize="10" guides="1" tooltips="1" connect="1" arrows="1" fold="1" page="1" pageScale="1" pageWidth="1100" pageHeight="850" background="none" math="0" shadow="0">
      <root>
        <mxCell id="npSDV83AQEJy20RVbPQC-0" />
        <mxCell id="npSDV83AQEJy20RVbPQC-1" parent="npSDV83AQEJy20RVbPQC-0" />
        <mxCell id="npSDV83AQEJy20RVbPQC-2" value="" style="strokeWidth=1;shadow=0;dashed=0;align=center;html=1;shape=mxgraph.mockup.containers.browserWindow;rSize=0;strokeColor=#666666;mainText=,;recursiveResize=0;rounded=0;labelBackgroundColor=none;fontFamily=Verdana;fontSize=12" parent="npSDV83AQEJy20RVbPQC-1" vertex="1">
          <mxGeometry x="330" y="160" width="1050" height="1020" as="geometry" />
        </mxCell>
        <mxCell id="npSDV83AQEJy20RVbPQC-3" value="Page 6" style="strokeWidth=1;shadow=0;dashed=0;align=center;html=1;shape=mxgraph.mockup.containers.anchor;fontSize=17;fontColor=#666666;align=left;" parent="npSDV83AQEJy20RVbPQC-2" vertex="1">
          <mxGeometry x="60" y="12" width="110" height="26" as="geometry" />
        </mxCell>
        <mxCell id="npSDV83AQEJy20RVbPQC-4" value="https://www.vivagym.com" style="strokeWidth=1;shadow=0;dashed=0;align=center;html=1;shape=mxgraph.mockup.containers.anchor;rSize=0;fontSize=17;fontColor=#666666;align=left;" parent="npSDV83AQEJy20RVbPQC-2" vertex="1">
          <mxGeometry x="130" y="60" width="250" height="26" as="geometry" />
        </mxCell>
        <mxCell id="tk--DPYbWv-7o6lA4boI-0" value="" style="rounded=0;whiteSpace=wrap;html=1;" vertex="1" parent="npSDV83AQEJy20RVbPQC-2">
          <mxGeometry y="110" width="1050" height="200" as="geometry" />
        </mxCell>
        <mxCell id="tk--DPYbWv-7o6lA4boI-5" value="" style="shape=parallelogram;perimeter=parallelogramPerimeter;whiteSpace=wrap;html=1;fixedSize=1;" vertex="1" parent="npSDV83AQEJy20RVbPQC-2">
          <mxGeometry x="80" y="170" width="120" height="60" as="geometry" />
        </mxCell>
        <mxCell id="tk--DPYbWv-7o6lA4boI-6" value="Logo" style="text;html=1;align=center;verticalAlign=middle;whiteSpace=wrap;rounded=0;" vertex="1" parent="npSDV83AQEJy20RVbPQC-2">
          <mxGeometry x="110" y="185" width="60" height="30" as="geometry" />
        </mxCell>
        <mxCell id="tk--DPYbWv-7o6lA4boI-7" value="&lt;h1 style=&quot;font-size: 50px;&quot;&gt;Text&lt;/h1&gt;" style="text;html=1;align=center;verticalAlign=middle;whiteSpace=wrap;rounded=0;fontSize=50;" vertex="1" parent="npSDV83AQEJy20RVbPQC-2">
          <mxGeometry x="380" y="170" width="250" height="95" as="geometry" />
        </mxCell>
        <mxCell id="tk--DPYbWv-7o6lA4boI-8" value="" style="whiteSpace=wrap;html=1;aspect=fixed;" vertex="1" parent="npSDV83AQEJy20RVbPQC-2">
          <mxGeometry x="260" y="265" width="550" height="550" as="geometry" />
        </mxCell>
        <mxCell id="tk--DPYbWv-7o6lA4boI-9" value="" style="rounded=0;whiteSpace=wrap;html=1;" vertex="1" parent="npSDV83AQEJy20RVbPQC-2">
          <mxGeometry x="315" y="340" width="440" height="60" as="geometry" />
        </mxCell>
        <mxCell id="tk--DPYbWv-7o6lA4boI-10" value="" style="rounded=0;whiteSpace=wrap;html=1;" vertex="1" parent="npSDV83AQEJy20RVbPQC-2">
          <mxGeometry x="315" y="425" width="440" height="60" as="geometry" />
        </mxCell>
        <mxCell id="tk--DPYbWv-7o6lA4boI-11" value="" style="whiteSpace=wrap;html=1;aspect=fixed;" vertex="1" parent="npSDV83AQEJy20RVbPQC-2">
          <mxGeometry x="330" y="510" width="20" height="20" as="geometry" />
        </mxCell>
        <mxCell id="tk--DPYbWv-7o6lA4boI-12" value="Text" style="text;html=1;align=center;verticalAlign=middle;whiteSpace=wrap;rounded=0;" vertex="1" parent="npSDV83AQEJy20RVbPQC-2">
          <mxGeometry x="360" y="505" width="60" height="30" as="geometry" />
        </mxCell>
        <mxCell id="tk--DPYbWv-7o6lA4boI-14" value="Text" style="text;html=1;align=center;verticalAlign=middle;whiteSpace=wrap;rounded=0;" vertex="1" parent="npSDV83AQEJy20RVbPQC-2">
          <mxGeometry x="330" y="440" width="60" height="30" as="geometry" />
        </mxCell>
        <mxCell id="tk--DPYbWv-7o6lA4boI-13" value="Text" style="text;html=1;align=center;verticalAlign=middle;whiteSpace=wrap;rounded=0;" vertex="1" parent="npSDV83AQEJy20RVbPQC-2">
          <mxGeometry x="330" y="355" width="60" height="30" as="geometry" />
        </mxCell>
        <mxCell id="tk--DPYbWv-7o6lA4boI-15" value="Text" style="text;html=1;align=center;verticalAlign=middle;whiteSpace=wrap;rounded=0;" vertex="1" parent="npSDV83AQEJy20RVbPQC-2">
          <mxGeometry x="330" y="550" width="60" height="30" as="geometry" />
        </mxCell>
        <mxCell id="tk--DPYbWv-7o6lA4boI-16" value="" style="rounded=0;whiteSpace=wrap;html=1;" vertex="1" parent="npSDV83AQEJy20RVbPQC-2">
          <mxGeometry x="320" y="580" width="450" height="60" as="geometry" />
        </mxCell>
        <mxCell id="tk--DPYbWv-7o6lA4boI-17" value="Text" style="text;html=1;align=center;verticalAlign=middle;whiteSpace=wrap;rounded=0;" vertex="1" parent="npSDV83AQEJy20RVbPQC-2">
          <mxGeometry x="515" y="595" width="60" height="30" as="geometry" />
        </mxCell>
        <mxCell id="tk--DPYbWv-7o6lA4boI-18" value="Text" style="text;html=1;align=center;verticalAlign=middle;whiteSpace=wrap;rounded=0;" vertex="1" parent="npSDV83AQEJy20RVbPQC-2">
          <mxGeometry x="515" y="660" width="60" height="30" as="geometry" />
        </mxCell>
        <mxCell id="tk--DPYbWv-7o6lA4boI-19" value="Text" style="text;html=1;align=center;verticalAlign=middle;whiteSpace=wrap;rounded=0;" vertex="1" parent="npSDV83AQEJy20RVbPQC-2">
          <mxGeometry x="340" y="700" width="60" height="30" as="geometry" />
        </mxCell>
        <mxCell id="9UT1dnyrsiLYA3MLI6Zk-1" value="" style="rounded=0;whiteSpace=wrap;html=1;" vertex="1" parent="npSDV83AQEJy20RVbPQC-2">
          <mxGeometry y="960" width="1050" height="60" as="geometry" />
        </mxCell>
        <mxCell id="9UT1dnyrsiLYA3MLI6Zk-0" value="Texto footer" style="text;html=1;align=center;verticalAlign=middle;whiteSpace=wrap;rounded=0;fontSize=12;" vertex="1" parent="npSDV83AQEJy20RVbPQC-2">
          <mxGeometry x="417.5" y="960" width="222.5" height="60" as="geometry" />
        </mxCell>
      </root>
    </mxGraphModel>
  </diagram>
  <diagram name="Page-7" id="QmFRWp8cc0M5SQOsmwcp">
    <mxGraphModel dx="1434" dy="738" grid="1" gridSize="10" guides="1" tooltips="1" connect="1" arrows="1" fold="1" page="1" pageScale="1" pageWidth="1100" pageHeight="850" background="none" math="0" shadow="0">
      <root>
        <mxCell id="MfpVtvsSYd57n3nQaFcA-0" />
        <mxCell id="MfpVtvsSYd57n3nQaFcA-1" parent="MfpVtvsSYd57n3nQaFcA-0" />
        <mxCell id="MfpVtvsSYd57n3nQaFcA-2" value="" style="strokeWidth=1;shadow=0;dashed=0;align=center;html=1;shape=mxgraph.mockup.containers.browserWindow;rSize=0;strokeColor=#666666;mainText=,;recursiveResize=0;rounded=0;labelBackgroundColor=none;fontFamily=Verdana;fontSize=12" vertex="1" parent="MfpVtvsSYd57n3nQaFcA-1">
          <mxGeometry x="230" width="1050" height="970" as="geometry" />
        </mxCell>
        <mxCell id="MfpVtvsSYd57n3nQaFcA-3" value="Page 7" style="strokeWidth=1;shadow=0;dashed=0;align=center;html=1;shape=mxgraph.mockup.containers.anchor;fontSize=17;fontColor=#666666;align=left;" vertex="1" parent="MfpVtvsSYd57n3nQaFcA-2">
          <mxGeometry x="60" y="12" width="110" height="26" as="geometry" />
        </mxCell>
        <mxCell id="MfpVtvsSYd57n3nQaFcA-4" value="https://www.vivagym.com" style="strokeWidth=1;shadow=0;dashed=0;align=center;html=1;shape=mxgraph.mockup.containers.anchor;rSize=0;fontSize=17;fontColor=#666666;align=left;" vertex="1" parent="MfpVtvsSYd57n3nQaFcA-2">
          <mxGeometry x="130" y="60" width="250" height="26" as="geometry" />
        </mxCell>
        <mxCell id="MfpVtvsSYd57n3nQaFcA-5" value="" style="rounded=0;whiteSpace=wrap;html=1;" vertex="1" parent="MfpVtvsSYd57n3nQaFcA-2">
          <mxGeometry y="110" width="1050" height="200" as="geometry" />
        </mxCell>
        <mxCell id="MfpVtvsSYd57n3nQaFcA-6" value="" style="shape=parallelogram;perimeter=parallelogramPerimeter;whiteSpace=wrap;html=1;fixedSize=1;" vertex="1" parent="MfpVtvsSYd57n3nQaFcA-2">
          <mxGeometry x="80" y="170" width="120" height="60" as="geometry" />
        </mxCell>
        <mxCell id="MfpVtvsSYd57n3nQaFcA-7" value="Logo" style="text;html=1;align=center;verticalAlign=middle;whiteSpace=wrap;rounded=0;" vertex="1" parent="MfpVtvsSYd57n3nQaFcA-2">
          <mxGeometry x="110" y="185" width="60" height="30" as="geometry" />
        </mxCell>
        <mxCell id="MfpVtvsSYd57n3nQaFcA-8" value="&lt;h1 style=&quot;font-size: 50px;&quot;&gt;Text&lt;/h1&gt;" style="text;html=1;align=center;verticalAlign=middle;whiteSpace=wrap;rounded=0;fontSize=50;" vertex="1" parent="MfpVtvsSYd57n3nQaFcA-2">
          <mxGeometry x="380" y="170" width="250" height="95" as="geometry" />
        </mxCell>
        <mxCell id="MfpVtvsSYd57n3nQaFcA-9" value="" style="whiteSpace=wrap;html=1;aspect=fixed;" vertex="1" parent="MfpVtvsSYd57n3nQaFcA-2">
          <mxGeometry x="260" y="265" width="545" height="545" as="geometry" />
        </mxCell>
        <mxCell id="MfpVtvsSYd57n3nQaFcA-10" value="" style="rounded=0;whiteSpace=wrap;html=1;" vertex="1" parent="MfpVtvsSYd57n3nQaFcA-2">
          <mxGeometry x="315" y="425" width="445" height="60" as="geometry" />
        </mxCell>
        <mxCell id="MfpVtvsSYd57n3nQaFcA-13" value="Text" style="text;html=1;align=center;verticalAlign=middle;whiteSpace=wrap;rounded=0;" vertex="1" parent="MfpVtvsSYd57n3nQaFcA-2">
          <mxGeometry x="495" y="340" width="60" height="30" as="geometry" />
        </mxCell>
        <mxCell id="MfpVtvsSYd57n3nQaFcA-15" value="Text" style="text;html=1;align=center;verticalAlign=middle;whiteSpace=wrap;rounded=0;" vertex="1" parent="MfpVtvsSYd57n3nQaFcA-2">
          <mxGeometry x="330" y="440" width="60" height="30" as="geometry" />
        </mxCell>
        <mxCell id="MfpVtvsSYd57n3nQaFcA-17" value="" style="rounded=0;whiteSpace=wrap;html=1;" vertex="1" parent="MfpVtvsSYd57n3nQaFcA-2">
          <mxGeometry x="315" y="520" width="445" height="60" as="geometry" />
        </mxCell>
        <mxCell id="MfpVtvsSYd57n3nQaFcA-18" value="Text" style="text;html=1;align=center;verticalAlign=middle;whiteSpace=wrap;rounded=0;" vertex="1" parent="MfpVtvsSYd57n3nQaFcA-2">
          <mxGeometry x="510" y="535" width="60" height="30" as="geometry" />
        </mxCell>
        <mxCell id="MfpVtvsSYd57n3nQaFcA-19" value="Text" style="text;html=1;align=center;verticalAlign=middle;whiteSpace=wrap;rounded=0;" vertex="1" parent="MfpVtvsSYd57n3nQaFcA-2">
          <mxGeometry x="507.5" y="600" width="60" height="30" as="geometry" />
        </mxCell>
        <mxCell id="uvl2Bg8Jroob3eQmnUnz-0" value="" style="rounded=0;whiteSpace=wrap;html=1;" vertex="1" parent="MfpVtvsSYd57n3nQaFcA-2">
          <mxGeometry y="910" width="1050" height="60" as="geometry" />
        </mxCell>
        <mxCell id="EH42q3SNdqpvb2zppoBn-1" value="Texto footer" style="text;html=1;align=center;verticalAlign=middle;whiteSpace=wrap;rounded=0;fontSize=12;" vertex="1" parent="MfpVtvsSYd57n3nQaFcA-2">
          <mxGeometry x="380" y="910" width="290" height="60" as="geometry" />
        </mxCell>
      </root>
    </mxGraphModel>
  </diagram>
</mxfile>
